<?xml version="1.0" encoding="utf-8"?>
<!-- Generator: Adobe Illustrator 26.0.2, SVG Export Plug-In . SVG Version: 6.00 Build 0)  -->
<svg version="1.1" id="Layer_1" xmlns="http://www.w3.org/2000/svg" xmlns:xlink="http://www.w3.org/1999/xlink" x="0px" y="0px"
	 viewBox="0 0 515 182" style="enable-background:new 0 0 515 182;" xml:space="preserve">
<style type="text/css">
	.st0{clip-path:url(#SVGID_00000093145644206485376860000014341992408472609667_);}
	.st1{fill-rule:evenodd;clip-rule:evenodd;fill:#FFFFFF;}
	.st2{fill-rule:evenodd;clip-rule:evenodd;fill:#B3A77D;}
	.st3{fill:none;stroke:#695D46;stroke-linejoin:round;stroke-miterlimit:10;}
	.st4{fill-rule:evenodd;clip-rule:evenodd;fill-opacity:0;}
	.st5{fill-rule:evenodd;clip-rule:evenodd;fill:#695D46;stroke:#695D46;stroke-miterlimit:10;}
	.st6{fill:none;stroke:#695D46;stroke-linejoin:round;stroke-miterlimit:10;stroke-dasharray:4,3;}
</style>
<g>
	<defs>
		<rect id="SVGID_1_" x="-213" y="-158" width="960" height="540"/>
	</defs>
	<clipPath id="SVGID_00000126292205061062403390000018230422680609548944_">
		<use xlink:href="#SVGID_1_"  style="overflow:visible;"/>
	</clipPath>
	<g style="clip-path:url(#SVGID_00000126292205061062403390000018230422680609548944_);">
		<path class="st1" d="M-213-158h960v540h-960V-158z"/>
		<path class="st2" d="M29.2,66.6h46.6v45.6H29.2V66.6z"/>
		<path class="st3" d="M29.2,66.6h46.6v45.6H29.2V66.6z"/>
		<path class="st2" d="M105.7,66.6h46.6v45.6h-46.6V66.6z"/>
		<path class="st3" d="M105.7,66.6h46.6v45.6h-46.6V66.6z"/>
		<path class="st2" d="M182.1,66.6h46.6v45.6h-46.6V66.6z"/>
		<path class="st3" d="M182.1,66.6h46.6v45.6h-46.6V66.6z"/>
		<path class="st4" d="M29.2,68.4h46.6v42H29.2V68.4z"/>
		<path d="M57.6,82v8.6c0,0.9-0.2,1.8-0.6,2.5c-0.4,0.7-0.9,1.3-1.7,1.7c-0.8,0.4-1.7,0.6-2.9,0.6c-1.6,0-2.9-0.4-3.8-1.3
			c-0.9-0.9-1.3-2.1-1.3-3.6V82h1.6v8.6c0,1.1,0.3,2,0.9,2.6c0.6,0.6,1.5,0.9,2.7,0.9c0.8,0,1.5-0.1,2-0.4c0.5-0.3,0.9-0.7,1.2-1.2
			c0.3-0.5,0.4-1.1,0.4-1.8V82H57.6z"/>
		<path class="st4" d="M105.6,68.4h46.6v42h-46.6V68.4z"/>
		<path d="M133,95.3h-7.4V82h7.4v1.4h-5.9v4.3h5.5V89h-5.5v4.9h5.9V95.3z"/>
		<path class="st4" d="M182.1,68.4h46.6v42h-46.6V68.4z"/>
		<path d="M204.6,95.3V82h1.5v13.3H204.6z"/>
		<path class="st4" d="M75.8,89.4h29.9"/>
		<path class="st3" d="M75.8,89.4h23.9"/>
		<path class="st5" d="M99.6,91l4.5-1.7l-4.5-1.7V91z"/>
		<path class="st4" d="M152.2,89.4h29.9"/>
		<path class="st3" d="M152.2,89.4h23.9"/>
		<path class="st5" d="M176.1,91l4.5-1.7l-4.5-1.7V91z"/>
		<path class="st2" d="M258.5,37.6h46.6v45.6h-46.6V37.6z"/>
		<path class="st3" d="M258.5,37.6h46.6v45.6h-46.6V37.6z"/>
		<path class="st4" d="M258.5,39.4h46.6v42h-46.6V39.4z"/>
		<path d="M285.7,53l-4.8,13.3h-1.6L274.5,53h1.6l3.1,8.8c0.1,0.4,0.2,0.7,0.3,1c0.1,0.3,0.2,0.6,0.3,0.9c0.1,0.3,0.2,0.6,0.2,0.9
			c0.1-0.3,0.1-0.6,0.2-0.9c0.1-0.3,0.2-0.6,0.3-0.9c0.1-0.3,0.2-0.7,0.4-1L284,53H285.7z"/>
		<path d="M286.9,73.3v-8.9h1v8.9H286.9z"/>
		<path class="st4" d="M228.7,89.4l29.9-29"/>
		<path class="st3" d="M228.7,89.4l25.6-24.8"/>
		<path class="st5" d="M255.4,65.7l2.1-4.3l-4.4,2L255.4,65.7z"/>
		<path class="st2" d="M258.5,98.6h46.6v45.6h-46.6V98.6z"/>
		<path class="st3" d="M258.5,98.6h46.6v45.6h-46.6V98.6z"/>
		<path class="st4" d="M258.5,100.4h46.6v42h-46.6V100.4z"/>
		<path d="M281,114l-4.8,13.3h-1.6l-4.8-13.3h1.6l3.1,8.8c0.1,0.4,0.2,0.7,0.3,1c0.1,0.3,0.2,0.6,0.3,0.9c0.1,0.3,0.2,0.6,0.2,0.9
			c0.1-0.3,0.1-0.6,0.2-0.9c0.1-0.3,0.2-0.6,0.3-0.9c0.1-0.3,0.2-0.7,0.4-1l3.1-8.7H281z"/>
		<path d="M289.1,134.3h-1.2l-4.8-7.5h0c0,0.2,0,0.4,0,0.7c0,0.2,0,0.5,0,0.8c0,0.3,0,0.6,0,0.9v5.1h-1v-8.9h1.2l4.8,7.4h0
			c0-0.1,0-0.3,0-0.6c0-0.3,0-0.5,0-0.8c0-0.3,0-0.6,0-0.8v-5.1h1V134.3z M291.5,134.3v-8.9h1v8.9H291.5z"/>
		<path class="st4" d="M228.7,89.4l29.9,32"/>
		<path class="st3" d="M228.7,89.4l25.8,27.6"/>
		<path class="st5" d="M253.2,118.1l4.3,2.2l-1.9-4.4L253.2,118.1z"/>
		<path class="st2" d="M335,66.6h46.6v45.6H335V66.6z"/>
		<path class="st3" d="M335,66.6h46.6v45.6H335V66.6z"/>
		<path class="st4" d="M335,68.4h46.6v42H335V68.4z"/>
		<path d="M359,95.3h-1.5v-12h-4.2V82h9.9v1.4H359V95.3z"/>
		<path class="st4" d="M335,73.4l-29.9-29"/>
		<path class="st6" d="M335,73.4l-25.6-24.8"/>
		<path class="st5" d="M310.6,47.4l-4.4-2l2.1,4.3L310.6,47.4z"/>
		<path class="st4" d="M305.1,60.4l29.9,29"/>
		<path class="st6" d="M305.1,60.4l25.6,24.8"/>
		<path class="st5" d="M329.5,86.4l4.4,2l-2.1-4.3L329.5,86.4z"/>
		<path class="st4" d="M305.1,121.4l29.9-32"/>
		<path class="st6" d="M305.1,121.4l25.8-27.6"/>
		<path class="st5" d="M332.1,94.9l1.9-4.4l-4.3,2.2L332.1,94.9z"/>
		<path class="st4" d="M335,105.4l-29.9,32"/>
		<path class="st6" d="M335,105.4L309.2,133"/>
		<path class="st5" d="M308,131.9l-1.9,4.4l4.3-2.2L308,131.9z"/>
		<path class="st4" d="M306.6,142.8h84.2"/>
		<path class="st3" d="M306.6,142.8h78.2"/>
		<path class="st5" d="M384.9,144.4l4.5-1.7l-4.5-1.7V144.4z"/>
		<path class="st4" d="M306.6,38.7h84.2"/>
		<path class="st3" d="M306.6,38.7h78.2"/>
		<path class="st5" d="M384.9,40.4l4.5-1.7l-4.5-1.7V40.4z"/>
		<path class="st4" d="M381.6,121.8h123.2v42H381.6V121.8z"/>
		<path d="M399.8,138.5c0.9,0,1.6,0.2,2.2,0.6c0.6,0.4,1.1,0.9,1.4,1.6s0.5,1.5,0.5,2.4v0.9h-6.9c0,1.2,0.3,2.1,0.9,2.7
			c0.6,0.6,1.4,0.9,2.4,0.9c0.6,0,1.2-0.1,1.7-0.2c0.5-0.1,1-0.3,1.5-0.5v1.3c-0.5,0.2-1,0.4-1.5,0.5c-0.5,0.1-1.1,0.2-1.8,0.2
			c-1,0-1.8-0.2-2.5-0.6c-0.7-0.4-1.3-1-1.7-1.7c-0.4-0.8-0.6-1.7-0.6-2.8c0-1.1,0.2-2,0.5-2.8c0.4-0.8,0.9-1.4,1.5-1.8
			S398.9,138.5,399.8,138.5z M399.7,139.8c-0.8,0-1.5,0.3-1.9,0.8c-0.5,0.5-0.8,1.3-0.9,2.2h5.3c0-0.6-0.1-1.1-0.3-1.6
			c-0.2-0.5-0.4-0.8-0.8-1.1S400.3,139.8,399.7,139.8z M407.9,148.7h-1.5v-14.2h1.5V148.7z M412.6,138.7v10h-1.5v-10H412.6z
			 M411.9,135c0.2,0,0.4,0.1,0.6,0.2c0.2,0.2,0.3,0.4,0.3,0.8c0,0.3-0.1,0.6-0.3,0.8c-0.2,0.2-0.4,0.2-0.6,0.2
			c-0.3,0-0.5-0.1-0.7-0.2c-0.2-0.2-0.3-0.4-0.3-0.8c0-0.3,0.1-0.6,0.3-0.8C411.4,135,411.6,135,411.9,135z M426.7,138.5
			c1.1,0,1.9,0.3,2.5,0.9c0.6,0.6,0.8,1.5,0.8,2.8v6.5h-1.5v-6.5c0-0.8-0.2-1.4-0.5-1.8c-0.3-0.4-0.9-0.6-1.5-0.6
			c-1,0-1.7,0.3-2.1,0.8c-0.4,0.6-0.7,1.4-0.7,2.5v5.6h-1.5v-6.5c0-0.5-0.1-1-0.2-1.3c-0.2-0.4-0.4-0.6-0.7-0.8s-0.7-0.3-1.2-0.3
			c-0.7,0-1.2,0.1-1.6,0.4c-0.4,0.3-0.7,0.7-0.9,1.2s-0.3,1.2-0.3,2v5.3h-1.5v-10h1.2l0.2,1.4h0.1c0.2-0.3,0.4-0.6,0.8-0.9
			c0.3-0.2,0.7-0.4,1-0.5s0.8-0.2,1.2-0.2c0.8,0,1.4,0.1,1.9,0.4c0.5,0.3,0.9,0.7,1.1,1.3h0.1c0.3-0.6,0.8-1,1.4-1.3
			C425.4,138.7,426,138.5,426.7,138.5z M434.6,138.7v10h-1.5v-10H434.6z M433.9,135c0.2,0,0.4,0.1,0.6,0.2c0.2,0.2,0.3,0.4,0.3,0.8
			c0,0.3-0.1,0.6-0.3,0.8c-0.2,0.2-0.4,0.2-0.6,0.2c-0.3,0-0.5-0.1-0.7-0.2c-0.2-0.2-0.3-0.4-0.3-0.8c0-0.3,0.1-0.6,0.3-0.8
			C433.4,135,433.6,135,433.9,135z M442.5,138.5c1.2,0,2.1,0.3,2.7,0.9c0.6,0.6,0.9,1.5,0.9,2.8v6.5h-1.5v-6.4
			c0-0.8-0.2-1.5-0.6-1.9c-0.4-0.4-1-0.6-1.7-0.6c-1.1,0-1.9,0.3-2.3,0.9c-0.4,0.6-0.7,1.5-0.7,2.7v5.2h-1.5v-10h1.2l0.2,1.4h0.1
			c0.2-0.4,0.5-0.7,0.8-0.9c0.3-0.2,0.7-0.4,1.1-0.5S442.1,138.5,442.5,138.5z M453,138.5c1.2,0,2.1,0.3,2.6,0.8
			c0.6,0.5,0.9,1.4,0.9,2.6v6.8h-1.1l-0.3-1.5H455c-0.3,0.4-0.6,0.7-0.9,0.9c-0.3,0.2-0.7,0.4-1,0.5c-0.4,0.1-0.9,0.2-1.5,0.2
			c-0.6,0-1.1-0.1-1.6-0.3c-0.5-0.2-0.8-0.5-1.1-1c-0.3-0.4-0.4-1-0.4-1.6c0-1,0.4-1.8,1.2-2.3c0.8-0.5,2-0.8,3.6-0.9l1.7-0.1v-0.6
			c0-0.9-0.2-1.5-0.6-1.8c-0.4-0.3-0.9-0.5-1.6-0.5c-0.5,0-1,0.1-1.5,0.2c-0.5,0.1-0.9,0.3-1.3,0.5l-0.5-1.2c0.4-0.2,1-0.4,1.5-0.6
			C451.7,138.6,452.3,138.5,453,138.5z M455,143.8l-1.5,0.1c-1.2,0.1-2.1,0.3-2.6,0.6c-0.5,0.4-0.8,0.9-0.8,1.5c0,0.6,0.2,1,0.5,1.3
			c0.3,0.3,0.8,0.4,1.4,0.4c0.9,0,1.6-0.2,2.2-0.7s0.8-1.2,0.8-2.2V143.8z M462.8,147.6c0.2,0,0.5,0,0.8-0.1c0.3,0,0.5-0.1,0.6-0.2
			v1.2c-0.2,0.1-0.4,0.1-0.7,0.2c-0.3,0.1-0.6,0.1-0.9,0.1c-0.5,0-1-0.1-1.5-0.3c-0.4-0.2-0.8-0.5-1-0.9c-0.2-0.4-0.4-1.1-0.4-1.8
			v-5.9h-1.4v-0.7l1.4-0.6l0.6-2.2h0.9v2.3h2.9v1.2h-2.9v5.9c0,0.6,0.1,1.1,0.4,1.4C462,147.5,462.3,147.6,462.8,147.6z
			 M467.8,138.7v10h-1.5v-10H467.8z M467,135c0.2,0,0.4,0.1,0.6,0.2c0.2,0.2,0.3,0.4,0.3,0.8c0,0.3-0.1,0.6-0.3,0.8
			c-0.2,0.2-0.4,0.2-0.6,0.2c-0.3,0-0.5-0.1-0.7-0.2c-0.2-0.2-0.3-0.4-0.3-0.8c0-0.3,0.1-0.6,0.3-0.8C466.6,135,466.8,135,467,135z
			 M479.6,143.7c0,0.8-0.1,1.6-0.3,2.2c-0.2,0.6-0.5,1.2-0.9,1.6c-0.4,0.4-0.9,0.8-1.5,1c-0.6,0.2-1.2,0.3-1.9,0.3
			c-0.7,0-1.3-0.1-1.8-0.3c-0.6-0.2-1-0.6-1.4-1c-0.4-0.4-0.7-1-1-1.6c-0.2-0.6-0.3-1.4-0.3-2.2c0-1.1,0.2-2,0.6-2.8
			c0.4-0.8,0.9-1.4,1.6-1.8c0.7-0.4,1.5-0.6,2.5-0.6c0.9,0,1.7,0.2,2.4,0.6c0.7,0.4,1.2,1,1.6,1.8
			C479.4,141.7,479.6,142.6,479.6,143.7z M472,143.7c0,0.8,0.1,1.5,0.3,2.1c0.2,0.6,0.5,1,1,1.4c0.4,0.3,1,0.5,1.7,0.5
			c0.7,0,1.3-0.2,1.7-0.5c0.4-0.3,0.8-0.8,1-1.4c0.2-0.6,0.3-1.3,0.3-2.1c0-0.8-0.1-1.5-0.3-2c-0.2-0.6-0.5-1-1-1.3
			c-0.4-0.3-1-0.5-1.7-0.5c-1,0-1.8,0.3-2.3,1C472.2,141.5,472,142.5,472,143.7z M486.9,138.5c1.2,0,2.1,0.3,2.7,0.9
			c0.6,0.6,0.9,1.5,0.9,2.8v6.5H489v-6.4c0-0.8-0.2-1.5-0.6-1.9c-0.4-0.4-1-0.6-1.7-0.6c-1.1,0-1.9,0.3-2.3,0.9
			c-0.4,0.6-0.7,1.5-0.7,2.7v5.2h-1.5v-10h1.2l0.2,1.4h0.1c0.2-0.4,0.5-0.7,0.8-0.9c0.3-0.2,0.7-0.4,1.1-0.5
			C486,138.6,486.5,138.5,486.9,138.5z"/>
		<path class="st4" d="M381.6,17.7h123.2v42H381.6V17.7z"/>
		<path d="M399.8,34.5c0.9,0,1.6,0.2,2.2,0.6c0.6,0.4,1.1,0.9,1.4,1.6s0.5,1.5,0.5,2.4V40h-6.9c0,1.2,0.3,2.1,0.9,2.7
			c0.6,0.6,1.4,0.9,2.4,0.9c0.6,0,1.2-0.1,1.7-0.2c0.5-0.1,1-0.3,1.5-0.5v1.3c-0.5,0.2-1,0.4-1.5,0.5c-0.5,0.1-1.1,0.2-1.8,0.2
			c-1,0-1.8-0.2-2.5-0.6c-0.7-0.4-1.3-1-1.7-1.7c-0.4-0.8-0.6-1.7-0.6-2.8c0-1.1,0.2-2,0.5-2.8c0.4-0.8,0.9-1.4,1.5-1.8
			S398.9,34.5,399.8,34.5z M399.7,35.7c-0.8,0-1.5,0.3-1.9,0.8c-0.5,0.5-0.8,1.3-0.9,2.2h5.3c0-0.6-0.1-1.1-0.3-1.6
			c-0.2-0.5-0.4-0.8-0.8-1.1S400.3,35.7,399.7,35.7z M407.9,44.7h-1.5V30.5h1.5V44.7z M412.6,34.7v10h-1.5v-10H412.6z M411.9,30.9
			c0.2,0,0.4,0.1,0.6,0.2c0.2,0.2,0.3,0.4,0.3,0.8c0,0.3-0.1,0.6-0.3,0.8c-0.2,0.2-0.4,0.2-0.6,0.2c-0.3,0-0.5-0.1-0.7-0.2
			c-0.2-0.2-0.3-0.4-0.3-0.8c0-0.3,0.1-0.6,0.3-0.8C411.4,31,411.6,30.9,411.9,30.9z M426.7,34.5c1.1,0,1.9,0.3,2.5,0.9
			c0.6,0.6,0.8,1.5,0.8,2.8v6.5h-1.5v-6.5c0-0.8-0.2-1.4-0.5-1.8c-0.3-0.4-0.9-0.6-1.5-0.6c-1,0-1.7,0.3-2.1,0.8
			c-0.4,0.6-0.7,1.4-0.7,2.5v5.6h-1.5v-6.5c0-0.5-0.1-1-0.2-1.3c-0.2-0.4-0.4-0.6-0.7-0.8s-0.7-0.3-1.2-0.3c-0.7,0-1.2,0.1-1.6,0.4
			c-0.4,0.3-0.7,0.7-0.9,1.2s-0.3,1.2-0.3,2v5.3h-1.5v-10h1.2l0.2,1.4h0.1c0.2-0.3,0.4-0.6,0.8-0.9c0.3-0.2,0.7-0.4,1-0.5
			s0.8-0.2,1.2-0.2c0.8,0,1.4,0.1,1.9,0.4c0.5,0.3,0.9,0.7,1.1,1.3h0.1c0.3-0.6,0.8-1,1.4-1.3C425.4,34.6,426,34.5,426.7,34.5z
			 M434.6,34.7v10h-1.5v-10H434.6z M433.9,30.9c0.2,0,0.4,0.1,0.6,0.2c0.2,0.2,0.3,0.4,0.3,0.8c0,0.3-0.1,0.6-0.3,0.8
			c-0.2,0.2-0.4,0.2-0.6,0.2c-0.3,0-0.5-0.1-0.7-0.2c-0.2-0.2-0.3-0.4-0.3-0.8c0-0.3,0.1-0.6,0.3-0.8
			C433.4,31,433.6,30.9,433.9,30.9z M442.5,34.5c1.2,0,2.1,0.3,2.7,0.9c0.6,0.6,0.9,1.5,0.9,2.8v6.5h-1.5v-6.4
			c0-0.8-0.2-1.5-0.6-1.9c-0.4-0.4-1-0.6-1.7-0.6c-1.1,0-1.9,0.3-2.3,0.9c-0.4,0.6-0.7,1.5-0.7,2.7v5.2h-1.5v-10h1.2l0.2,1.4h0.1
			c0.2-0.4,0.5-0.7,0.8-0.9c0.3-0.2,0.7-0.4,1.1-0.5S442.1,34.5,442.5,34.5z M453,34.5c1.2,0,2.1,0.3,2.6,0.8
			c0.6,0.5,0.9,1.4,0.9,2.6v6.8h-1.1l-0.3-1.5H455c-0.3,0.4-0.6,0.7-0.9,0.9c-0.3,0.2-0.7,0.4-1,0.5c-0.4,0.1-0.9,0.2-1.5,0.2
			c-0.6,0-1.1-0.1-1.6-0.3c-0.5-0.2-0.8-0.5-1.1-1c-0.3-0.4-0.4-1-0.4-1.6c0-1,0.4-1.8,1.2-2.3c0.8-0.5,2-0.8,3.6-0.9l1.7-0.1v-0.6
			c0-0.9-0.2-1.5-0.6-1.8c-0.4-0.3-0.9-0.5-1.6-0.5c-0.5,0-1,0.1-1.5,0.2c-0.5,0.1-0.9,0.3-1.3,0.5l-0.5-1.2c0.4-0.2,1-0.4,1.5-0.6
			C451.7,34.6,452.3,34.5,453,34.5z M455,39.7l-1.5,0.1c-1.2,0.1-2.1,0.3-2.6,0.6c-0.5,0.4-0.8,0.9-0.8,1.5c0,0.6,0.2,1,0.5,1.3
			c0.3,0.3,0.8,0.4,1.4,0.4c0.9,0,1.6-0.2,2.2-0.7s0.8-1.2,0.8-2.2V39.7z M462.8,43.6c0.2,0,0.5,0,0.8-0.1c0.3,0,0.5-0.1,0.6-0.2
			v1.2c-0.2,0.1-0.4,0.1-0.7,0.2c-0.3,0.1-0.6,0.1-0.9,0.1c-0.5,0-1-0.1-1.5-0.3c-0.4-0.2-0.8-0.5-1-0.9c-0.2-0.4-0.4-1.1-0.4-1.8
			v-5.9h-1.4v-0.7l1.4-0.6l0.6-2.2h0.9v2.3h2.9v1.2h-2.9v5.9c0,0.6,0.1,1.1,0.4,1.4C462,43.4,462.3,43.6,462.8,43.6z M467.8,34.7v10
			h-1.5v-10H467.8z M467,30.9c0.2,0,0.4,0.1,0.6,0.2c0.2,0.2,0.3,0.4,0.3,0.8c0,0.3-0.1,0.6-0.3,0.8c-0.2,0.2-0.4,0.2-0.6,0.2
			c-0.3,0-0.5-0.1-0.7-0.2c-0.2-0.2-0.3-0.4-0.3-0.8c0-0.3,0.1-0.6,0.3-0.8C466.6,31,466.8,30.9,467,30.9z M479.6,39.6
			c0,0.8-0.1,1.6-0.3,2.2c-0.2,0.6-0.5,1.2-0.9,1.6c-0.4,0.4-0.9,0.8-1.5,1c-0.6,0.2-1.2,0.3-1.9,0.3c-0.7,0-1.3-0.1-1.8-0.3
			c-0.6-0.2-1-0.6-1.4-1c-0.4-0.4-0.7-1-1-1.6c-0.2-0.6-0.3-1.4-0.3-2.2c0-1.1,0.2-2,0.6-2.8c0.4-0.8,0.9-1.4,1.6-1.8
			c0.7-0.4,1.5-0.6,2.5-0.6c0.9,0,1.7,0.2,2.4,0.6c0.7,0.4,1.2,1,1.6,1.8C479.4,37.6,479.6,38.6,479.6,39.6z M472,39.6
			c0,0.8,0.1,1.5,0.3,2.1c0.2,0.6,0.5,1,1,1.4c0.4,0.3,1,0.5,1.7,0.5c0.7,0,1.3-0.2,1.7-0.5c0.4-0.3,0.8-0.8,1-1.4
			c0.2-0.6,0.3-1.3,0.3-2.1c0-0.8-0.1-1.5-0.3-2c-0.2-0.6-0.5-1-1-1.3c-0.4-0.3-1-0.5-1.7-0.5c-1,0-1.8,0.3-2.3,1
			C472.2,37.5,472,38.4,472,39.6z M486.9,34.5c1.2,0,2.1,0.3,2.7,0.9c0.6,0.6,0.9,1.5,0.9,2.8v6.5H489v-6.4c0-0.8-0.2-1.5-0.6-1.9
			c-0.4-0.4-1-0.6-1.7-0.6c-1.1,0-1.9,0.3-2.3,0.9c-0.4,0.6-0.7,1.5-0.7,2.7v5.2h-1.5v-10h1.2l0.2,1.4h0.1c0.2-0.4,0.5-0.7,0.8-0.9
			c0.3-0.2,0.7-0.4,1.1-0.5C486,34.5,486.5,34.5,486.9,34.5z"/>
	</g>
</g>
</svg>
